<?xml version="1.0" encoding="iso-8859-1"?>
<!-- Uploaded to: SVG Repo, www.svgrepo.com, Generator: SVG Repo Mixer Tools -->
<svg height="800px" width="800px" version="1.1" id="Layer_1" xmlns="http://www.w3.org/2000/svg" xmlns:xlink="http://www.w3.org/1999/xlink" 
	 viewBox="0 0 512.853 512.853" xml:space="preserve">
<g transform="translate(1 1)">
	<path style="fill:#FFE100;" d="M263.533,502.893H41.667c-13.653,0-25.6-11.093-25.6-25.6V33.56c0-13.653,11.093-25.6,25.6-25.6
		h221.867c13.653,0,25.6,11.093,25.6,25.6v443.733C289.133,491.8,278.04,502.893,263.533,502.893"/>
	<path style="fill:#FDCC00;" d="M178.2,468.76c0,14.507-11.093,25.6-25.6,25.6c-14.507,0-25.6-11.093-25.6-25.6
		c0-14.507,11.093-25.6,25.6-25.6C167.107,443.16,178.2,454.253,178.2,468.76"/>
	<polygon style="fill:#FFE100;" points="16.067,434.627 289.133,434.627 289.133,59.16 16.067,59.16 	"/>
	<path style="fill:#63D3FD;" d="M488.813,144.493H379.587c-7.68,0-13.653-5.973-13.653-13.653V21.613
		c0-7.68,5.973-13.653,13.653-13.653h110.08c6.827,0,12.8,5.973,12.8,13.653v110.08C502.467,138.52,496.493,144.493,488.813,144.493
		"/>
	<path style="fill:#FFFFFF;" d="M41.667,477.293V33.56c0-13.653,11.093-25.6,25.6-25.6h-25.6c-14.507,0-25.6,11.093-25.6,25.6
		v443.733c0,13.653,11.093,25.6,25.6,25.6h25.6C52.76,502.893,41.667,491.8,41.667,477.293"/>
	<g>
		<path style="fill:#63D3FD;" d="M488.813,323.693H379.587c-7.68,0-13.653-5.973-13.653-13.653V200.813
			c0-7.68,5.973-13.653,13.653-13.653h110.08c7.68,0,13.653,5.973,13.653,13.653v110.08
			C502.467,317.72,496.493,323.693,488.813,323.693"/>
		<path style="fill:#63D3FD;" d="M488.813,502.893H379.587c-7.68,0-13.653-5.973-13.653-13.653V380.013
			c0-7.68,5.973-13.653,13.653-13.653h110.08c7.68,0,13.653,5.973,13.653,13.653v110.08
			C502.467,496.92,496.493,502.893,488.813,502.893"/>
	</g>
	<g>
		<path style="fill:#3DB9F9;" d="M488.813,7.96h-25.6c7.68,0,13.653,5.973,13.653,13.653v110.08c0,7.68-5.973,13.653-13.653,13.653
			h25.6c7.68,0,13.653-5.973,13.653-13.653V21.613C502.467,13.933,496.493,7.96,488.813,7.96"/>
		<path style="fill:#3DB9F9;" d="M488.813,187.16h-25.6c7.68,0,13.653,5.973,13.653,13.653v110.08
			c0,7.68-5.973,13.653-13.653,13.653h25.6c7.68,0,13.653-5.973,13.653-13.653v-110.08
			C502.467,193.133,496.493,187.16,488.813,187.16"/>
		<path style="fill:#3DB9F9;" d="M488.813,366.36h-25.6c7.68,0,13.653,5.973,13.653,13.653v110.08
			c0,7.68-5.973,13.653-13.653,13.653h25.6c7.68,0,13.653-5.973,13.653-13.653v-110.08
			C502.467,372.333,496.493,366.36,488.813,366.36"/>
	</g>
	<path style="fill:#00DA6C;" d="M207.213,323.693H97.987c-7.68,0-13.653-5.973-13.653-13.653V200.813
		c0-7.68,5.973-13.653,13.653-13.653h110.08c7.68,0,13.653,5.973,13.653,13.653v110.08
		C220.867,317.72,214.893,323.693,207.213,323.693"/>
	<path d="M263.533,511.427H41.667c-18.773,0-34.133-15.36-34.133-34.133V33.56c0-18.773,15.36-34.133,34.133-34.133h221.867
		c18.773,0,34.133,15.36,34.133,34.133v443.733C297.667,496.067,282.307,511.427,263.533,511.427z M41.667,16.493
		c-9.387,0-17.067,7.68-17.067,17.067v443.733c0,9.387,7.68,17.067,17.067,17.067h221.867c9.387,0,17.067-7.68,17.067-17.067V33.56
		c0-9.387-7.68-17.067-17.067-17.067H41.667z"/>
	<path d="M297.667,443.16H7.533V50.627h290.133V443.16z M24.6,426.093h256v-358.4h-256V426.093z"/>
	<path d="M186.733,42.093h-42.667c-5.12,0-8.533-3.413-8.533-8.533c0-5.12,3.413-8.533,8.533-8.533h42.667
		c5.12,0,8.533,3.413,8.533,8.533C195.267,38.68,191.853,42.093,186.733,42.093z"/>
	<path d="M118.467,42.093h-8.533c-5.12,0-8.533-3.413-8.533-8.533c0-5.12,3.413-8.533,8.533-8.533h8.533
		c5.12,0,8.533,3.413,8.533,8.533C127,38.68,123.587,42.093,118.467,42.093z"/>
	<path d="M7.533,101.827c-5.12,0-8.533-3.413-8.533-8.533V84.76c0-5.12,3.413-8.533,8.533-8.533s8.533,3.413,8.533,8.533v8.533
		C16.067,98.413,12.653,101.827,7.533,101.827z"/>
	<path d="M7.533,135.96c-5.12,0-8.533-3.413-8.533-8.533v-8.533c0-5.12,3.413-8.533,8.533-8.533s8.533,3.413,8.533,8.533v8.533
		C16.067,132.547,12.653,135.96,7.533,135.96z"/>
	<path d="M7.533,170.093c-5.12,0-8.533-3.413-8.533-8.533v-8.533c0-5.12,3.413-8.533,8.533-8.533s8.533,3.413,8.533,8.533v8.533
		C16.067,166.68,12.653,170.093,7.533,170.093z"/>
	<path d="M152.6,502.893c-18.773,0-34.133-15.36-34.133-34.133s15.36-34.133,34.133-34.133s34.133,15.36,34.133,34.133
		S171.373,502.893,152.6,502.893z M152.6,451.693c-9.387,0-17.067,7.68-17.067,17.067s7.68,17.067,17.067,17.067
		s17.067-7.68,17.067-17.067S161.987,451.693,152.6,451.693z"/>
	<path d="M488.813,153.027H379.587c-11.947,0-22.187-10.24-22.187-22.187V21.613c0-11.947,9.387-22.187,22.187-22.187h110.08
		C500.76-0.573,511,9.667,511,21.613v110.08C511,142.787,500.76,153.027,488.813,153.027z M379.587,16.493
		c-2.56,0-5.12,2.56-5.12,5.12v110.08c0,2.56,2.56,5.12,5.12,5.12h110.08c2.56,0,5.12-2.56,5.12-5.12V21.613
		c-0.853-2.56-3.413-5.12-5.973-5.12H379.587z"/>
	<path d="M488.813,332.227H379.587c-11.947,0-22.187-10.24-22.187-22.187V200.813c0-11.947,10.24-22.187,22.187-22.187h110.08
		c11.947,0,22.187,10.24,22.187,22.187v110.08C511,321.987,500.76,332.227,488.813,332.227z M379.587,195.693
		c-2.56,0-5.12,2.56-5.12,5.12v110.08c0,2.56,2.56,5.12,5.12,5.12h110.08c2.56,0,5.12-2.56,5.12-5.12v-110.08
		c0-2.56-2.56-5.12-5.12-5.12H379.587z"/>
	<path d="M207.213,332.227H97.987c-12.8,0-22.187-10.24-22.187-22.187V200.813c0-11.947,10.24-22.187,22.187-22.187h110.08
		c11.947,0,22.187,10.24,22.187,22.187v110.08C229.4,321.987,219.16,332.227,207.213,332.227z M97.987,195.693
		c-2.56,0-5.12,2.56-5.12,5.12v110.08c0,2.56,2.56,5.12,5.12,5.12h110.08c2.56,0,5.12-2.56,5.12-5.12v-110.08
		c0-2.56-2.56-5.12-5.12-5.12H97.987z"/>
	<path d="M488.813,511.427H379.587c-11.947,0-22.187-10.24-22.187-22.187V380.013c0-11.947,10.24-22.187,22.187-22.187h110.08
		c11.947,0,22.187,10.24,22.187,22.187v110.08C511,501.187,500.76,511.427,488.813,511.427z M379.587,374.893
		c-2.56,0-5.12,2.56-5.12,5.12v110.08c0,2.56,2.56,5.12,5.12,5.12h110.08c2.56,0,5.12-2.56,5.12-5.12v-110.08
		c0-2.56-2.56-5.12-5.12-5.12H379.587z"/>
	<path d="M220.867,263.96c-1.707,0-3.413-0.853-5.12-1.707c-3.413-2.56-4.267-8.533-1.707-11.947L359.107,62.573
		c2.56-3.413,8.533-4.267,11.947-1.707c3.413,2.56,4.267,8.533,1.707,11.947L227.693,260.547
		C225.987,263.107,223.427,263.96,220.867,263.96z"/>
	<path d="M365.933,263.96H220.867c-5.12,0-8.533-3.413-8.533-8.533c0-5.12,3.413-8.533,8.533-8.533h145.067
		c5.12,0,8.533,3.413,8.533,8.533C374.467,260.547,371.053,263.96,365.933,263.96z"/>
	<path d="M365.933,451.693c-2.56,0-5.12-0.853-6.827-3.413L214.04,260.547c-2.56-3.413-2.56-9.387,1.707-11.947
		c3.413-2.56,9.387-2.56,11.947,1.707L372.76,438.04c2.56,3.413,2.56,9.387-1.707,11.947
		C369.347,450.84,367.64,451.693,365.933,451.693z"/>
</g>
</svg>